<svg id="Layer_1" data-name="Layer 1" xmlns="http://www.w3.org/2000/svg" width="4.7in" height="3.1in" viewBox="0 0 338.4 223.2"><defs><style>.cls-1{fill:#595955;}.cls-2{fill:#fff;}</style></defs><title>Artboard 1</title><path class="cls-1" d="M298.09,54.6c-21.08.91-34.46-11.14-41.76-26.86-24.79-10.66-54.54-16.92-86.55-17.06h-1c-32,.15-61.75,6.4-86.55,17.06-11,26-32.38,27.35-41.75,27.49C22.62,71.7,11.86,90.74,11.86,112.34c0,16.23,5.92,31.57,16.44,45.19C46,159.35,60.61,172,66.25,189.08c.06,0-.06,0,0,0,.93,2.1,15.08,19.84,64.84,16.66,0,0,24.72-2.73,38.17,6.36.06,0,0,0,0,0,15.15-9.82,38.19-6.39,38.19-6.39,49.76,3.19,63.71-14.49,64.65-16.59.06,0-.06,0,0,0,5.63-17.09,20.46-29.83,38.12-31.65,10.52-13.61,16.44-29,16.44-45.19C326.7,90.74,315.94,71.06,298.09,54.6Z"/><path class="cls-2" d="M169.44,10.67h.35c32,.15,61.75,6.4,86.55,17.06,7,15.16,19.73,26.9,39.54,26.9q1.1,0,2.22,0c17.85,16.46,28.61,36.14,28.61,57.74,0,16.23-5.93,31.57-16.44,45.19-17.66,1.83-32.49,14.56-38.12,31.65l0,0h0c-.88,1.95-12.71,17-53.08,17q-5.43,0-11.56-.38a71.62,71.62,0,0,0-9.53-.58c-8.08,0-19.73,1.19-28.65,7,0,0,0,0,0,0h0c-8.41-5.68-21.21-6.75-29.64-6.75-5.06,0-8.53.38-8.53.38-4.08.26-7.92.38-11.53.38-40.45,0-52.45-15.11-53.31-17,0,0,0,0,0,0h0s0,0,0,0C60.61,172,46,159.35,28.3,157.53c-10.52-13.61-16.44-29-16.44-45.19,0-21.6,10.76-40.64,28.61-57.11,9.37-.13,30.73-1.53,41.75-27.49,24.8-10.66,54.54-16.92,86.55-17.06h.67m102.7,178.5h0m0,0h0M169.44,3.86H162V4c-29.48.92-57.84,6.93-82.43,17.5L77,22.57,76,25.09C67.21,45.68,51.46,48.27,40.38,48.43l-2.6,0-1.91,1.77C15.42,69.08,5.05,90,5.05,112.34c0,17.16,6.18,34.23,17.86,49.35L24.7,164l2.9.3c14,1.45,26.2,11.2,31.51,25l-.82,3,3.13,1.83C66.5,201,83,213,119.55,213c3.84,0,7.87-.13,12-.4h.16l.16,0s3.22-.34,7.79-.34c9.87,0,18.11,1.5,23.58,4.27l2.54,1.51,3.26,2.2.24-.14.21.12,3.53-2.29c7.49-4.85,17.7-5.87,25-5.87a66.32,66.32,0,0,1,8.54.51l.27,0,.28,0c4.11.26,8.15.4,12,.4q2,0,3.87,0l-2,1.27,3.8-1.32c31.32-1.14,46.4-11.52,51.69-18l3.36-1.17-.62-3.65,3.12-6.93A38.14,38.14,0,0,1,311,164.3l2.9-.3,1.78-2.31c11.69-15.13,17.86-32.19,17.86-49.35,0-22.46-10.65-44.16-30.8-62.74l-2.08-1.92-2.83.12c-.65,0-1.29,0-1.93,0-18.77,0-28.5-12.49-33.36-23l-1.1-2.36-2.39-1c-24.58-10.57-53-16.58-82.43-17.5V3.87h-7.15Z"/><path class="cls-2" d="M100.65,33.78l7.18-2,.6,2.15-4.85,1.36.55,2L108.71,36l.6,2.15-4.58,1.28.6,2.15,5.12-1.43.6,2.15-7.45,2.08Z"/><path class="cls-2" d="M120.09,31.71a2.34,2.34,0,0,0-1.87-.34c-.66.14-1.52.65-1.35,1.45.43,2,5.09-.37,5.89,3.38.51,2.39-1.16,3.94-3.37,4.42a5.19,5.19,0,0,1-3.89-.57l1.28-2.21a2.68,2.68,0,0,0,2.28.57c.77-.17,1.56-.72,1.39-1.48-.42-2-5.22.18-6-3.39-.49-2.29,1.23-3.91,3.33-4.36a4.94,4.94,0,0,1,3.53.41Z"/><path class="cls-2" d="M129.59,29.42l-3.09.49-.33-2.11,8.56-1.36.33,2.11L132,29l1.38,8.72-2.39.38Z"/><path class="cls-2" d="M142.43,25.52l2-.21,5.88,10.42-2.71.28-1.18-2.21-4.24.44-.67,2.41-2.65.28Zm1.25,3.08-1,3.53,2.67-.28Z"/><path class="cls-2" d="M154.57,24.49l4.09-.19c1.92-.09,4,.23,4.13,2.61A2.47,2.47,0,0,1,161,29.4v0A2.62,2.62,0,0,1,163.53,32c.1,2.29-2,3.14-4,3.23l-4.48.2Zm2.61,4.27,1.75-.08c.74,0,1.5-.38,1.46-1.26s-.92-1.11-1.68-1.07l-1.64.08Zm.21,4.53,2.16-.1c.76,0,1.6-.4,1.55-1.36s-1.22-1.16-2-1.12l-1.82.08Z"/><path class="cls-2" d="M169,24l2.42,0-.1,8.74,4.48.05,0,2.23L168.9,35Z"/><path class="cls-2" d="M181.43,24.36l2.41.13-.58,10.95-2.41-.13Z"/><path class="cls-2" d="M195.41,28.12a2.34,2.34,0,0,0-1.67-.89c-.68-.07-1.65.15-1.73,1-.2,2,5,1.2,4.58,5-.24,2.44-2.31,3.4-4.55,3.18a5.23,5.23,0,0,1-3.54-1.72L190.39,33a2.69,2.69,0,0,0,2,1.23c.79.08,1.7-.21,1.78-1,.19-2-5-1.42-4.67-5.06.22-2.33,2.36-3.35,4.5-3.14a4.93,4.93,0,0,1,3.24,1.46Z"/><path class="cls-2" d="M203.46,26.38l2.39.38-.64,4,4.63.73.64-4,2.39.38-1.72,10.82-2.38-.38.74-4.68-4.63-.73-.74,4.68-2.39-.38Z"/><path class="cls-2" d="M219.44,29.14l7.27,1.62-.49,2.17-4.91-1.09-.45,2,4.64,1L225,37l-4.64-1-.49,2.18,5.18,1.16-.48,2.17-7.54-1.68Z"/><path class="cls-2" d="M233.18,32.4l3.47,1c3.39,1,5.8,3.28,4.66,7.13C240.3,44,237,45,233.85,44l-3.79-1.12ZM233,41.46l1.2.36c2.16.64,4,.3,4.72-2.09.61-2.06-.75-3.52-2.71-4.1l-1.37-.41Z"/><path class="cls-2" d="M107.25,158.61h-6.08V140.55h6.52c6.34,0,10.11,3.4,10.11,8.88C117.81,155.13,113.37,158.61,107.25,158.61Zm0-14.64h-1.92v11.24h2c4.2,0,5.92-2.69,5.92-5.64C113.29,146.06,111.18,144,107.28,144Z"/><path class="cls-2" d="M128.35,158.61V140.55h10.85l-1,3.37h-5.64v3.78h5.67v3.4h-5.67v4.14h6.6v3.37Z"/><path class="cls-2" d="M163.1,158.61l-7.51-9.51c-.57-.74-1.1-1.45-1.7-2.25h-.06a24.87,24.87,0,0,1,.08,2.58v9.18h-4.17V140.55h4.2l7.26,9.12c.58.74,1.1,1.43,1.62,2.19h.06c-.06-.93-.06-2.25-.06-3v-8.36H167v18.06Z"/><path class="cls-2" d="M191.3,143.92h-4.77v14.69h-4.25V143.92H177v-3.37h15.18Z"/><path class="cls-2" d="M213.9,158.61l-1.73-4.3h-5.87l-1.64,4.3h-4.22l7.1-18.15h3.29l7.49,18.15Zm-3.84-10.14c-.41-1.23-.66-2-.8-2.58h0a19.84,19.84,0,0,1-.85,2.6l-.91,2.47h3.43Z"/><path class="cls-2" d="M228.09,158.61V140.55h4.17v14.66h6.22v3.4Z"/><path class="cls-2" d="M65.86,128.67l-12.3-14.73h-.1v14.73H48.21V95.32h5.26V109.9h.1L65.25,95.42h6.28L58.07,111.61l14.47,17.05Z"/><path class="cls-2" d="M83,128.67V95.32h17.81L99.2,99.88H88.33v9.46H99.15v4.55H88.33v10.22h12.54v4.56Z"/><path class="cls-2" d="M137.45,128.67l-15.69-20.49a49,49,0,0,1-3.34-4.81h-.1c.1,1.11.1,2.73.1,4.35v20.95h-5.26V95.32h5.36l15.08,19.73a41.28,41.28,0,0,1,3.49,5h.1c0-1.37-.1-3-.1-4.65V95.32h5.31v33.34Z"/><path class="cls-2" d="M180.41,128.67l-15.69-20.49a48,48,0,0,1-3.34-4.81h-.1c.1,1.11.1,2.73.1,4.35v20.95h-5.26V95.32h5.36l15.08,19.73a40.86,40.86,0,0,1,3.49,5h.1c0-1.37-.1-3-.1-4.65V95.32h5.32v33.34Z"/><path class="cls-2" d="M199.08,128.67V95.32h17.81l-1.62,4.55H204.39v9.46h10.83v4.55H204.39v10.22h12.54v4.56Z"/><path class="cls-2" d="M238.19,128.67h-9V95.32h9.16c12.29,0,18.37,6.78,18.37,16.34C256.76,121.43,250.23,128.67,238.19,128.67Zm.25-28.74h-3.89v24.18h3.89c9.26,0,12.7-5.82,12.7-12.34C251.14,105,247,99.93,238.44,99.93Z"/><path class="cls-2" d="M282.21,115.41v13.26h-5.31V115.31l-11.33-20h5.87l5.52,10c.86,1.62,2,3.59,2.68,5.21h.1c.76-1.62,1.77-3.54,2.58-5.11l5.46-10.07h5.56Z"/><path class="cls-2" d="M151.22,180.56l-2.31,2-1.39-1.6,3.77-3.17h2.28v11.53h-2.35Z"/><path class="cls-2" d="M164.41,185.24a3.29,3.29,0,0,1-.8.11,3.57,3.57,0,0,1-3.62-3.76,4.32,4.32,0,0,1,8.6,0,6.55,6.55,0,0,1-1.39,3.83l-2.52,3.94h-3Zm-.11-1.74a1.81,1.81,0,1,0-1.86-1.8A1.77,1.77,0,0,0,164.29,183.5Z"/><path class="cls-2" d="M177.32,185.24a3.31,3.31,0,0,1-.8.11,3.57,3.57,0,0,1-3.62-3.76,4.31,4.31,0,0,1,8.6,0,6.57,6.57,0,0,1-1.38,3.83l-2.53,3.94h-3Zm-.11-1.74a1.81,1.81,0,1,0-1.86-1.8A1.76,1.76,0,0,0,177.2,183.5Z"/><path class="cls-2" d="M189.95,180.56l-2.31,2-1.39-1.6,3.76-3.17h2.28v11.53h-2.35Z"/><path class="cls-2" d="M236.87,75.87H184.59V64.19h-.3c-6.24,0-12.07,12.88-13.18,17.71l-.5,2.32-.5-2.32c-1.11-4.83-6.94-17.71-13.18-17.71h-.3V75.87H104.34v-3h23.92l.51-1.1c4.33-9.66,12-13.79,22.93-13.79h.71a21.08,21.08,0,0,1,36.41,0h.71c11,0,18.61,4.13,22.93,13.79l.51,1.1h23.91Zm-46.85-3h15.69C203,66.11,196.37,63.4,190,63.4ZM159.45,58.77a25.35,25.35,0,0,1,11.16,9.15,25.34,25.34,0,0,1,11.17-9.15c-2.11-3.52-7.14-5.84-11.17-5.84S161.55,55.25,159.45,58.77Zm-8.26,4.63c-6.33,0-13,2.71-15.69,9.45h15.69Z"/><path class="cls-1" d="M169.57,222l-1-.69c-.14-.1-14.24-9.86-36.9-7.83-53.74,4.8-71.07-17.7-71.78-18.67l-.18-.24-.08-.29c-8.24-28.19-33.85-28.85-34.94-28.86h-.83l-.5-.67C-2.91,129.56,2.18,99.42,11.08,80.33a96.86,96.86,0,0,1,25.82-33.2l.51-.39.64,0C67.25,48.91,75.62,23.73,76,22.66l.19-.6.54-.33C77.89,21,106.87,3.66,168.54,2.4l0,1.69,0-1.69c52.37-1.08,93.35,19.05,93.76,19.25l.64.32.22.68c.34,1.07,8.72,26.25,37.9,24.13l.65,0,.51.41a98,98,0,0,1,25.33,33.39c8.75,19.14,13.8,49.3-11.8,84.22l-.5.68h-.84c-1.08,0-26.7.67-34.94,28.86l-.08.29-.18.24c-.64.87-14.87,19.34-57.26,19.34-4.52,0-9.35-.21-14.52-.67-22.66-2-36.74,7.73-36.88,7.83ZM138,209.85c17.07,0,28.3,6.06,31.58,8.09,3.68-2.28,17.39-9.65,38.16-7.8,48.91,4.38,66.71-14.87,68.6-17.11,8.17-27.32,32.27-30.54,37.17-30.91,19.37-26.77,23.07-53.75,11-80.19a96.91,96.91,0,0,0-23.87-31.75q-1.51.09-3,.09c-26.26,0-35.85-21.65-37.47-25.89C255,21.95,216.67,4.78,168.61,5.78h0c-31.7.65-54.53,5.73-68.1,9.89C88,19.5,80.82,23.27,78.95,24.32c-1.54,4.07-11.09,26-37.5,26q-1.45,0-3-.09A95.88,95.88,0,0,0,14.09,81.86c-12.22,26.32-8.34,53.31,11.52,80.26,4.89.37,29,3.58,37.18,30.92,1.87,2.22,19.66,21.49,68.6,17.11C133.67,209.94,135.88,209.85,138,209.85Z"/></svg>